# Blender 5.1.1
# www.blender.org
o Penrose.002
v 4.000072 5.000000 6.000072
v 4.000072 4.000014 4.000072
v 6.000072 5.999986 6.000072
v 6.000072 5.000000 4.000072
v 4.000072 -1.000000 6.000072
v 4.000072 1.000000 6.000072
v 4.000072 -1.000000 4.000072
v 4.000072 1.000000 4.000072
v 6.000072 -1.000000 6.000072
v 6.000072 1.000000 6.000072
v 6.000072 -1.000000 4.000072
v 6.000072 1.000000 4.000072
v 4.000072 -1.000000 -4.000072
v 4.000072 1.000000 -4.000072
v 4.000072 -1.000000 -6.000072
v 4.000072 1.000000 -6.000072
v 6.000072 -1.000000 -4.000072
v 6.000072 1.000000 -4.000072
v 6.000072 -1.000000 -6.000072
v 6.000072 1.000000 -6.000072
v -6.000072 -1.000000 -4.000072
v -6.000072 1.000000 -4.000072
v -6.000072 -1.000000 -6.000072
v -6.000072 1.000000 -6.000072
v -4.000072 -1.000000 -4.000072
v -4.000072 1.000000 -4.000072
v -4.000072 -1.000000 -6.000072
v -4.000072 1.000000 -6.000072
v -6.000072 -5.000000 -4.000072
v -6.000072 -5.999986 -6.000072
v -4.000072 -4.000014 -4.000072
v -4.000072 -5.000000 -6.000072
vn 1.0000 -0.0000 -0.0000
vn -1.0000 -0.0000 -0.0000
vn -0.0000 -0.0000 1.0000
vn -0.0000 -1.0000 -0.0000
vn -0.0000 -0.0000 -1.0000
vn -0.0000 1.0000 -0.0000
s 0
f 11//1 12//1 10//1 9//1
f 5//2 6//2 8//2 7//2
f 9//3 10//3 6//3 5//3
f 7//4 11//4 9//4 5//4
f 19//1 20//1 18//1 17//1
f 15//5 16//5 20//5 19//5
f 20//6 16//6 14//6 18//6
f 15//4 19//4 17//4 13//4
f 21//2 22//2 24//2 23//2
f 23//5 24//5 28//5 27//5
f 25//3 26//3 22//3 21//3
f 28//6 24//6 22//6 26//6
f 12//1 4//1 3//1 10//1
f 6//2 1//2 2//2 8//2
f 8//5 2//5 4//5 12//5
f 10//3 3//3 1//3 6//3
f 17//1 18//1 12//1 11//1
f 7//2 8//2 14//2 13//2
f 18//6 14//6 8//6 12//6
f 13//4 17//4 11//4 7//4
f 27//5 28//5 16//5 15//5
f 13//3 14//3 26//3 25//3
f 16//6 28//6 26//6 14//6
f 27//4 15//4 13//4 25//4
f 32//1 27//1 25//1 31//1
f 29//2 21//2 23//2 30//2
f 30//5 23//5 27//5 32//5
f 31//3 25//3 21//3 29//3
o Penrose.003
v 6.000073 4.000068 5.000005
v 4.000073 4.000070 4.000018
v 6.000074 6.000069 5.999991
v 4.000074 6.000070 5.000004
v 6.000077 4.000068 -0.999996
v 6.000076 4.000068 1.000004
v 4.000077 4.000070 -0.999998
v 4.000076 4.000070 1.000003
v 6.000079 6.000069 -0.999996
v 6.000078 6.000069 1.000004
v 4.000078 6.000070 -0.999998
v 4.000077 6.000070 1.000003
v -4.000069 4.000076 -1.000003
v -4.000070 4.000076 0.999998
v -6.000070 4.000078 -1.000004
v -6.000071 4.000078 0.999996
v -4.000068 6.000077 -1.000003
v -4.000069 6.000077 0.999998
v -6.000068 6.000078 -1.000004
v -6.000069 6.000078 0.999996
v -4.000077 -6.000070 -1.000003
v -4.000078 -6.000070 0.999998
v -6.000078 -6.000069 -1.000004
v -6.000079 -6.000069 0.999996
v -4.000076 -4.000070 -1.000003
v -4.000077 -4.000070 0.999998
v -6.000076 -4.000068 -1.000004
v -6.000077 -4.000068 0.999996
v -4.000074 -6.000070 -5.000004
v -6.000074 -6.000069 -5.999991
v -4.000073 -4.000070 -4.000018
v -6.000073 -4.000068 -5.000005
vn -0.0000 1.0000 -0.0000
vn -0.0000 -1.0000 -0.0000
vn 1.0000 -0.0000 -0.0000
vn -0.0000 -0.0000 -1.0000
vn -1.0000 -0.0000 -0.0000
vn -0.0000 -0.0000 1.0000
s 0
f 43//7 44//7 42//7 41//7
f 37//8 38//8 40//8 39//8
f 41//9 42//9 38//9 37//9
f 39//10 43//10 41//10 37//10
f 51//7 52//7 50//7 49//7
f 47//11 48//11 52//11 51//11
f 52//12 48//12 46//12 50//12
f 47//10 51//10 49//10 45//10
f 53//8 54//8 56//8 55//8
f 55//11 56//11 60//11 59//11
f 57//9 58//9 54//9 53//9
f 60//12 56//12 54//12 58//12
f 44//7 36//7 35//7 42//7
f 38//8 33//8 34//8 40//8
f 40//11 34//11 36//11 44//11
f 42//9 35//9 33//9 38//9
f 49//7 50//7 44//7 43//7
f 39//8 40//8 46//8 45//8
f 50//12 46//12 40//12 44//12
f 45//10 49//10 43//10 39//10
f 59//11 60//11 48//11 47//11
f 45//9 46//9 58//9 57//9
f 48//12 60//12 58//12 46//12
f 59//10 47//10 45//10 57//10
f 64//7 59//7 57//7 63//7
f 61//8 53//8 55//8 62//8
f 62//11 55//11 59//11 64//11
f 63//9 57//9 53//9 61//9
o Penrose.004
v 5.000000 6.000075 4.000072
v 4.000015 4.000074 4.000072
v 5.999987 6.000075 6.000072
v 5.000002 4.000074 6.000072
v -1.000002 6.000072 4.000076
v 0.999999 6.000072 4.000075
v -1.000000 4.000071 4.000075
v 1.000000 4.000072 4.000074
v -1.000000 6.000071 6.000076
v 1.000000 6.000072 6.000075
v -0.999999 4.000070 6.000075
v 1.000002 4.000071 6.000074
v -0.999995 -4.000075 4.000072
v 1.000006 -4.000074 4.000071
v -0.999994 -6.000075 4.000071
v 1.000007 -6.000074 4.000070
v -0.999994 -4.000076 6.000072
v 1.000007 -4.000075 6.000072
v -0.999992 -6.000076 6.000072
v 1.000008 -6.000075 6.000071
v -1.000002 -4.000071 -6.000074
v 0.999999 -4.000070 -6.000075
v -1.000000 -6.000072 -6.000075
v 1.000000 -6.000071 -6.000076
v -1.000000 -4.000072 -4.000074
v 1.000000 -4.000071 -4.000075
v -0.999999 -6.000072 -4.000075
v 1.000002 -6.000072 -4.000076
v -5.000002 -4.000074 -6.000072
v -5.999987 -6.000075 -6.000072
v -4.000015 -4.000074 -4.000072
v -5.000000 -6.000075 -4.000072
vn -0.0000 -0.0000 1.0000
vn -0.0000 -0.0000 -1.0000
vn -0.0000 1.0000 -0.0000
vn -1.0000 -0.0000 -0.0000
vn -0.0000 -1.0000 -0.0000
vn 1.0000 -0.0000 -0.0000
s 0
f 75//13 76//13 74//13 73//13
f 69//14 70//14 72//14 71//14
f 73//15 74//15 70//15 69//15
f 71//16 75//16 73//16 69//16
f 83//13 84//13 82//13 81//13
f 79//17 80//17 84//17 83//17
f 84//18 80//18 78//18 82//18
f 79//16 83//16 81//16 77//16
f 85//14 86//14 88//14 87//14
f 87//17 88//17 92//17 91//17
f 89//15 90//15 86//15 85//15
f 92//18 88//18 86//18 90//18
f 76//13 68//13 67//13 74//13
f 70//14 65//14 66//14 72//14
f 72//17 66//17 68//17 76//17
f 74//15 67//15 65//15 70//15
f 81//13 82//13 76//13 75//13
f 71//14 72//14 78//14 77//14
f 82//18 78//18 72//18 76//18
f 77//16 81//16 75//16 71//16
f 91//17 92//17 80//17 79//17
f 77//15 78//15 90//15 89//15
f 80//18 92//18 90//18 78//18
f 91//16 79//16 77//16 89//16
f 96//13 91//13 89//13 95//13
f 93//14 85//14 87//14 94//14
f 94//17 87//17 91//17 96//17
f 95//15 89//15 85//15 93//15
