# Blender 5.1.1
# www.blender.org
o Penrose.011
v 4.000072 5.000000 6.000072
v 4.000072 4.000014 4.000072
v 6.000072 5.999986 6.000072
v 6.000072 5.000000 4.000072
v 4.000072 -1.000000 6.000072
v 4.000072 1.000000 6.000072
v 4.000072 -1.000000 4.000072
v 4.000072 1.000000 4.000072
v 6.000072 -1.000000 6.000072
v 6.000072 1.000000 6.000072
v 6.000072 -1.000000 4.000072
v 6.000072 1.000000 4.000072
v 4.000072 -1.000000 -4.000072
v 4.000072 1.000000 -4.000072
v 4.000072 -1.000000 -6.000072
v 4.000072 1.000000 -6.000072
v 6.000072 -1.000000 -4.000072
v 6.000072 1.000000 -4.000072
v 6.000072 -1.000000 -6.000072
v 6.000072 1.000000 -6.000072
v -6.000072 -1.000000 -4.000072
v -6.000072 1.000000 -4.000072
v -6.000072 -1.000000 -6.000072
v -6.000072 1.000000 -6.000072
v -4.000072 -1.000000 -4.000072
v -4.000072 1.000000 -4.000072
v -4.000072 -1.000000 -6.000072
v -4.000072 1.000000 -6.000072
v -6.000072 -5.000000 -4.000072
v -6.000072 -5.999986 -6.000072
v -4.000072 -4.000014 -4.000072
v -4.000072 -5.000000 -6.000072
vn 1.0000 -0.0000 -0.0000
vn -1.0000 -0.0000 -0.0000
vn -0.0000 -0.0000 1.0000
vn -0.0000 -1.0000 -0.0000
vn -0.0000 -0.0000 -1.0000
vn -0.0000 1.0000 -0.0000
s 0
f 11//1 12//1 10//1 9//1
f 5//2 6//2 8//2 7//2
f 9//3 10//3 6//3 5//3
f 7//4 11//4 9//4 5//4
f 19//1 20//1 18//1 17//1
f 15//5 16//5 20//5 19//5
f 20//6 16//6 14//6 18//6
f 15//4 19//4 17//4 13//4
f 21//2 22//2 24//2 23//2
f 23//5 24//5 28//5 27//5
f 25//3 26//3 22//3 21//3
f 28//6 24//6 22//6 26//6
f 12//1 4//1 3//1 10//1
f 6//2 1//2 2//2 8//2
f 8//5 2//5 4//5 12//5
f 10//3 3//3 1//3 6//3
f 17//1 18//1 12//1 11//1
f 7//2 8//2 14//2 13//2
f 18//6 14//6 8//6 12//6
f 13//4 17//4 11//4 7//4
f 27//5 28//5 16//5 15//5
f 13//3 14//3 26//3 25//3
f 16//6 28//6 26//6 14//6
f 27//4 15//4 13//4 25//4
f 32//1 27//1 25//1 31//1
f 29//2 21//2 23//2 30//2
f 30//5 23//5 27//5 32//5
f 31//3 25//3 21//3 29//3
o Penrose.012
v 6.000025 5.000095 4.000025
v 4.000033 4.000091 4.000034
v 6.000015 6.000102 6.000016
v 4.000024 5.000096 6.000025
v 2.000026 7.000096 0.000023
v 3.333359 6.333429 1.333357
v 0.666692 5.666763 0.666690
v 2.000025 5.000096 2.000024
v 1.333359 8.333430 1.333357
v 2.666692 7.666764 2.666691
v 0.000025 7.000097 2.000023
v 1.333358 6.333430 3.333357
v -4.666740 0.333335 3.333404
v -3.333407 -0.333332 4.666738
v -6.000074 -0.999998 4.000071
v -4.666741 -1.666665 5.333405
v -5.333407 1.666669 4.666737
v -4.000074 1.000002 6.000071
v -6.666741 0.333336 5.333404
v -5.333408 -0.333331 6.666738
v -1.333358 -6.333430 -3.333357
v -0.000025 -7.000097 -2.000023
v -2.666692 -7.666764 -2.666691
v -1.333359 -8.333430 -1.333357
v -2.000025 -5.000096 -2.000024
v -0.666692 -5.666763 -0.666690
v -3.333359 -6.333429 -1.333357
v -2.000026 -7.000096 -0.000023
v -4.000024 -5.000096 -6.000025
v -6.000015 -6.000102 -6.000016
v -4.000033 -4.000091 -4.000034
v -6.000025 -5.000095 -4.000025
vn -0.3333 0.6667 0.6667
vn 0.3333 -0.6667 -0.6667
vn 0.6667 0.6667 -0.3333
vn -0.6667 0.3333 -0.6667
vn -0.6667 -0.6667 0.3333
vn 0.6667 -0.3333 0.6667
s 0
f 43//7 44//7 42//7 41//7
f 37//8 38//8 40//8 39//8
f 41//9 42//9 38//9 37//9
f 39//10 43//10 41//10 37//10
f 51//7 52//7 50//7 49//7
f 47//11 48//11 52//11 51//11
f 52//12 48//12 46//12 50//12
f 47//10 51//10 49//10 45//10
f 53//8 54//8 56//8 55//8
f 55//11 56//11 60//11 59//11
f 57//9 58//9 54//9 53//9
f 60//12 56//12 54//12 58//12
f 44//7 36//7 35//7 42//7
f 38//8 33//8 34//8 40//8
f 40//11 34//11 36//11 44//11
f 42//9 35//9 33//9 38//9
f 49//7 50//7 44//7 43//7
f 39//8 40//8 46//8 45//8
f 50//12 46//12 40//12 44//12
f 45//10 49//10 43//10 39//10
f 59//11 60//11 48//11 47//11
f 45//9 46//9 58//9 57//9
f 48//12 60//12 58//12 46//12
f 59//10 47//10 45//10 57//10
f 64//7 59//7 57//7 63//7
f 61//8 53//8 55//8 62//8
f 62//11 55//11 59//11 64//11
f 63//9 57//9 53//9 61//9
