# Blender 5.1.1
# www.blender.org
o Cube
v 6.000035 -6.000137 -5.999972
v 6.000026 -6.000137 -3.999972
v 4.000035 -6.000115 -5.999981
v 4.000026 -6.000115 -3.999981
v 6.000057 -4.000137 -5.999972
v 6.000048 -4.000137 -3.999972
v 4.000057 -4.000115 -5.999981
v 4.000048 -4.000115 -3.999981
v 5.999988 -6.000137 4.000028
v 5.999979 -6.000137 6.000028
v 3.999988 -6.000115 4.000019
v 3.999979 -6.000115 6.000019
v 6.000010 -4.000137 4.000028
v 6.000000 -4.000137 6.000028
v 4.000010 -4.000115 4.000019
v 4.000000 -4.000115 6.000019
v -4.000109 -6.000029 -6.000019
v -4.000118 -6.000029 -4.000019
v -6.000109 -6.000007 -6.000028
v -6.000118 -6.000007 -4.000028
v -4.000087 -4.000029 -6.000019
v -4.000096 -4.000029 -4.000019
v -6.000087 -4.000007 -6.000028
v -6.000096 -4.000007 -4.000028
v -4.000156 -6.000029 3.999981
v -4.000165 -6.000029 5.999981
v -6.000156 -6.000007 3.999972
v -6.000165 -6.000007 5.999972
v -4.000134 -4.000029 3.999981
v -4.000144 -4.000029 5.999981
v -6.000134 -4.000007 3.999972
v -6.000144 -4.000007 5.999972
v 6.000144 4.000007 -5.999972
v 6.000134 4.000007 -3.999972
v 4.000144 4.000029 -5.999981
v 4.000134 4.000029 -3.999981
v 6.000165 6.000007 -5.999972
v 6.000156 6.000007 -3.999972
v 4.000165 6.000029 -5.999981
v 4.000156 6.000029 -3.999981
v -4.000000 4.000115 -6.000019
v -4.000010 4.000115 -4.000019
v -6.000000 4.000137 -6.000028
v -6.000010 4.000137 -4.000028
v -3.999979 6.000115 -6.000019
v -3.999988 6.000115 -4.000019
v -5.999979 6.000137 -6.000028
v -5.999988 6.000137 -4.000028
v -4.000048 4.000115 3.999981
v -4.000057 4.000115 5.999981
v -6.000048 4.000137 3.999972
v -6.000057 4.000137 5.999972
v -4.000026 6.000115 3.999981
v -4.000035 6.000115 5.999981
v -6.000026 6.000137 3.999972
v -6.000035 6.000137 5.999972
v -4.000137 -6.000029 -0.000019
v -6.000132 -6.000007 -1.000014
v -4.000120 -4.000029 0.999967
v -6.000115 -4.000007 -0.000028
v 6.000068 4.000007 10.000029
v 4.000073 4.000029 9.000033
v 6.000085 6.000007 11.000014
v 4.000090 6.000029 10.000019
vn -0.0000 -1.0000 -0.0000
vn 1.0000 -0.0000 -0.0000
vn -0.0000 -0.0000 -1.0000
vn -0.0000 1.0000 -0.0000
vn -0.0000 -0.0000 1.0000
vn -1.0000 -0.0000 -0.0000
s 0
f 1//1 2//1 4//1 3//1
f 5//2 6//2 2//2 1//2
f 3//3 7//3 5//3 1//3
f 15//4 16//4 14//4 13//4
f 9//1 10//1 12//1 11//1
f 13//2 14//2 10//2 9//2
f 16//5 12//5 10//5 14//5
f 17//1 18//1 20//1 19//1
f 19//6 20//6 24//6 23//6
f 24//5 20//5 18//5 22//5
f 19//3 23//3 21//3 17//3
f 25//1 26//1 28//1 27//1
f 27//6 28//6 32//6 31//6
f 32//5 28//5 26//5 30//5
f 39//4 40//4 38//4 37//4
f 37//2 38//2 34//2 33//2
f 35//3 39//3 37//3 33//3
f 47//4 48//4 46//4 45//4
f 43//6 44//6 48//6 47//6
f 43//3 47//3 45//3 41//3
f 55//4 56//4 54//4 53//4
f 51//6 52//6 56//6 55//6
f 53//2 54//2 50//2 49//2
f 56//5 52//5 50//5 54//5
f 8//4 15//4 13//4 6//4
f 2//1 9//1 11//1 4//1
f 4//6 11//6 15//6 8//6
f 6//2 13//2 9//2 2//2
f 21//4 22//4 8//4 7//4
f 3//1 4//1 18//1 17//1
f 22//5 18//5 4//5 8//5
f 17//3 21//3 7//3 3//3
f 7//6 8//6 36//6 35//6
f 33//2 34//2 6//2 5//2
f 36//5 8//5 6//5 34//5
f 7//3 35//3 33//3 5//3
f 29//4 30//4 16//4 15//4
f 11//1 12//1 26//1 25//1
f 30//5 26//5 12//5 16//5
f 25//3 29//3 15//3 11//3
f 23//6 24//6 44//6 43//6
f 41//2 42//2 22//2 21//2
f 44//5 24//5 22//5 42//5
f 23//3 43//3 41//3 21//3
f 31//6 32//6 52//6 51//6
f 49//2 50//2 30//2 29//2
f 52//5 32//5 30//5 50//5
f 31//3 51//3 49//3 29//3
f 45//4 46//4 40//4 39//4
f 35//1 36//1 42//1 41//1
f 46//5 42//5 36//5 40//5
f 41//3 45//3 39//3 35//3
f 48//4 55//4 53//4 46//4
f 42//1 49//1 51//1 44//1
f 44//6 51//6 55//6 48//6
f 46//2 53//2 49//2 42//2
f 60//4 31//4 29//4 59//4
f 57//1 25//1 27//1 58//1
f 58//6 27//6 31//6 60//6
f 59//2 29//2 25//2 57//2
f 40//4 64//4 63//4 38//4
f 34//1 61//1 62//1 36//1
f 36//6 62//6 64//6 40//6
f 38//2 63//2 61//2 34//2
