# Blender 5.1.1
# www.blender.org
o Arch
v -3.500036 3.500000 6.000072
v -3.500036 2.500014 4.000072
v -1.500036 4.499986 6.000072
v -1.500036 3.500000 4.000072
v -3.500036 -1.000000 6.000072
v -3.500036 1.000000 6.000072
v -3.500036 -1.000000 4.000072
v -3.500036 1.000000 4.000072
v -1.500036 -1.000000 6.000072
v -1.500036 1.000000 6.000072
v -1.500036 -1.000000 4.000072
v -1.500036 1.000000 4.000072
v 1.500036 -1.000000 6.000072
v 1.500036 1.000000 6.000072
v 1.500036 -1.000000 4.000072
v 1.500036 1.000000 4.000072
v 3.500036 -1.000000 6.000072
v 3.500036 1.000000 6.000072
v 3.500036 -1.000000 4.000072
v 3.500036 1.000000 4.000072
v 1.500036 -1.000000 1.000000
v 1.500036 1.000000 1.000000
v 1.500036 -1.000000 -1.000000
v 1.500036 1.000000 -1.000000
v 3.500036 -1.000000 1.000000
v 3.500036 1.000000 1.000000
v 3.500036 -1.000000 -1.000000
v 3.500036 1.000000 -1.000000
v 1.500036 1.000000 1.000000
v 1.500036 3.000000 1.000000
v 1.500036 1.000000 -1.000000
v 1.500036 3.000000 -1.000000
v 3.500036 1.000000 1.000000
v 3.500036 3.000000 1.000000
v 3.500036 1.000000 -1.000000
v 3.500036 3.000000 -1.000000
v -8.500109 1.000000 1.000000
v -8.500109 3.000000 1.000000
v -8.500109 1.000000 -1.000000
v -8.500109 3.000000 -1.000000
v -6.500108 1.000000 1.000000
v -6.500108 3.000000 1.000000
v -6.500108 1.000000 -1.000000
v -6.500108 3.000000 -1.000000
v -8.500109 -1.500000 1.000000
v -8.500109 -2.499986 -1.000000
v -6.500108 -0.500014 1.000000
v -6.500108 -1.500000 -1.000000
vn -1.0000 -0.0000 -0.0000
vn -0.0000 -0.0000 -1.0000
vn -0.0000 -0.0000 1.0000
vn -0.0000 -1.0000 -0.0000
vn 1.0000 -0.0000 -0.0000
vn -0.0000 1.0000 -0.0000
s 0
f 5//1 6//1 8//1 7//1
f 7//2 8//2 12//2 11//2
f 9//3 10//3 6//3 5//3
f 7//4 11//4 9//4 5//4
f 19//5 20//5 18//5 17//5
f 17//3 18//3 14//3 13//3
f 20//6 16//6 14//6 18//6
f 15//4 19//4 17//4 13//4
f 27//5 28//5 26//5 25//5
f 21//1 22//1 24//1 23//1
f 23//2 24//2 28//2 27//2
f 23//4 27//4 25//4 21//4
f 35//5 36//5 34//5 33//5
f 31//2 32//2 36//2 35//2
f 33//3 34//3 30//3 29//3
f 36//6 32//6 30//6 34//6
f 37//1 38//1 40//1 39//1
f 39//2 40//2 44//2 43//2
f 41//3 42//3 38//3 37//3
f 44//6 40//6 38//6 42//6
f 12//5 4//5 3//5 10//5
f 6//1 1//1 2//1 8//1
f 8//2 2//2 4//2 12//2
f 10//3 3//3 1//3 6//3
f 11//2 12//2 16//2 15//2
f 13//3 14//3 10//3 9//3
f 16//6 12//6 10//6 14//6
f 11//4 15//4 13//4 9//4
f 25//5 26//5 20//5 19//5
f 15//1 16//1 22//1 21//1
f 26//6 22//6 16//6 20//6
f 21//4 25//4 19//4 15//4
f 28//6 35//6 33//6 26//6
f 22//6 29//6 31//6 24//6
f 24//6 31//6 35//6 28//6
f 26//6 33//6 29//6 22//6
f 43//2 44//2 32//2 31//2
f 29//3 30//3 42//3 41//3
f 32//6 44//6 42//6 30//6
f 43//4 31//4 29//4 41//4
f 48//5 43//5 41//5 47//5
f 45//1 37//1 39//1 46//1
f 46//2 39//2 43//2 48//2
f 47//3 41//3 37//3 45//3
