# Blender 5.1.1
# www.blender.org
o Stair
v 2.625043 -0.750000 3.500036
v 3.375043 0.750000 3.500036
v 1.625029 -0.750000 1.500036
v 2.375029 0.750000 1.500036
v 3.500036 -0.750000 3.500036
v 3.500036 0.750000 3.500036
v 3.500036 -0.750000 1.500036
v 3.500036 0.750000 1.500036
v 4.000072 -0.437500 3.500036
v 4.000072 1.062500 3.500036
v 4.000072 -0.437500 1.500036
v 4.000072 1.062500 1.500036
v 6.000072 -0.437500 3.500036
v 6.000072 1.062500 3.500036
v 6.000072 -0.437500 1.500036
v 6.000072 1.062500 1.500036
v 6.500108 -0.125000 3.500036
v 6.500108 1.375000 3.500036
v 6.500108 -0.125000 1.500036
v 6.500108 1.375000 1.500036
v 8.500109 -0.125000 3.500036
v 8.500109 1.375000 3.500036
v 8.500109 -0.125000 1.500036
v 8.500109 1.375000 1.500036
v 6.500108 0.500000 1.000000
v 6.500108 2.000000 1.000000
v 6.500108 0.500000 -1.000000
v 6.500108 2.000000 -1.000000
v 8.500109 0.500000 1.000000
v 8.500109 2.000000 1.000000
v 8.500109 0.500000 -1.000000
v 8.500109 2.000000 -1.000000
v 6.500108 1.125000 -1.500036
v 6.500108 2.625000 -1.500036
v 6.500108 1.125000 -3.500036
v 6.500108 2.625000 -3.500036
v 8.500109 1.125000 -1.500036
v 8.500109 2.625000 -1.500036
v 8.500109 1.125000 -3.500036
v 8.500109 2.625000 -3.500036
v 4.000072 1.750000 -1.500036
v 4.000072 3.250000 -1.500036
v 4.000072 1.750000 -3.500036
v 4.000072 3.250000 -3.500036
v 6.000072 1.750000 -1.500036
v 6.000072 3.250000 -1.500036
v 6.000072 1.750000 -3.500036
v 6.000072 3.250000 -3.500036
v 1.500036 2.375000 -1.500036
v 1.500036 3.875000 -1.500036
v 1.500036 2.375000 -3.500036
v 1.500036 3.875000 -3.500036
v 3.500036 2.375000 -1.500036
v 3.500036 3.875000 -1.500036
v 3.500036 2.375000 -3.500036
v 3.500036 3.875000 -3.500036
v 1.500036 2.687500 1.000000
v 1.500036 4.187500 1.000000
v 1.500036 2.687500 -1.000000
v 1.500036 4.187500 -1.000000
v 3.500036 2.687500 1.000000
v 3.500036 4.187500 1.000000
v 3.500036 2.687500 -1.000000
v 3.500036 4.187500 -1.000000
v 1.500036 3.000000 3.500036
v 1.500036 4.500000 3.500036
v 1.500036 3.000000 1.500036
v 1.500036 4.500000 1.500036
v 3.500036 3.000000 3.500036
v 3.500036 4.500000 3.500036
v 3.500036 3.000000 1.500036
v 3.500036 4.500000 1.500036
v 1.500036 3.312500 6.000072
v 1.500036 4.812500 6.000072
v 1.500036 3.312500 4.000072
v 1.500036 4.812500 4.000072
v 3.500036 3.312500 6.000072
v 3.500036 4.812500 6.000072
v 3.500036 3.312500 4.000072
v 3.500036 4.812500 4.000072
v 1.500036 3.625000 8.500109
v 1.500036 5.125000 8.500109
v 1.500036 3.625000 6.500108
v 1.500036 5.125000 6.500108
v 3.500036 3.625000 8.500109
v 3.500036 5.125000 8.500109
v 3.500036 3.625000 6.500108
v 3.500036 5.125000 6.500108
v 4.000072 3.937500 8.500109
v 4.000072 5.437500 8.500109
v 4.000072 3.937500 6.500108
v 4.000072 5.437500 6.500108
v 6.000072 3.937500 8.500109
v 6.000072 5.437500 8.500109
v 6.000072 3.937500 6.500108
v 6.000072 5.437500 6.500108
v 6.500108 4.250000 8.500109
v 6.500108 5.750000 8.500109
v 6.500108 4.250000 6.500108
v 6.500108 5.750000 6.500108
v 7.625115 4.250000 8.500109
v 8.375115 5.750000 8.500109
v 6.625101 4.250000 6.500108
v 7.375101 5.750000 6.500108
vn 1.0000 -0.0000 -0.0000
vn -0.0000 -0.0000 -1.0000
vn -0.0000 -0.0000 1.0000
vn -0.0000 1.0000 -0.0000
vn -0.0000 -1.0000 -0.0000
vn -1.0000 -0.0000 -0.0000
s 0
f 7//1 8//1 6//1 5//1
f 3//2 4//2 8//2 7//2
f 5//3 6//3 2//3 1//3
f 8//4 4//4 2//4 6//4
f 3//5 7//5 5//5 1//5
f 15//1 16//1 14//1 13//1
f 9//6 10//6 12//6 11//6
f 11//2 12//2 16//2 15//2
f 13//3 14//3 10//3 9//3
f 16//4 12//4 10//4 14//4
f 11//5 15//5 13//5 9//5
f 23//1 24//1 22//1 21//1
f 17//6 18//6 20//6 19//6
f 19//2 20//2 24//2 23//2
f 21//3 22//3 18//3 17//3
f 24//4 20//4 18//4 22//4
f 19//5 23//5 21//5 17//5
f 31//1 32//1 30//1 29//1
f 25//6 26//6 28//6 27//6
f 27//2 28//2 32//2 31//2
f 29//3 30//3 26//3 25//3
f 32//4 28//4 26//4 30//4
f 27//5 31//5 29//5 25//5
f 39//1 40//1 38//1 37//1
f 33//6 34//6 36//6 35//6
f 35//2 36//2 40//2 39//2
f 37//3 38//3 34//3 33//3
f 40//4 36//4 34//4 38//4
f 35//5 39//5 37//5 33//5
f 47//1 48//1 46//1 45//1
f 41//6 42//6 44//6 43//6
f 43//2 44//2 48//2 47//2
f 45//3 46//3 42//3 41//3
f 48//4 44//4 42//4 46//4
f 43//5 47//5 45//5 41//5
f 55//1 56//1 54//1 53//1
f 49//6 50//6 52//6 51//6
f 51//2 52//2 56//2 55//2
f 53//3 54//3 50//3 49//3
f 56//4 52//4 50//4 54//4
f 51//5 55//5 53//5 49//5
f 63//1 64//1 62//1 61//1
f 57//6 58//6 60//6 59//6
f 59//2 60//2 64//2 63//2
f 61//3 62//3 58//3 57//3
f 64//4 60//4 58//4 62//4
f 59//5 63//5 61//5 57//5
f 71//1 72//1 70//1 69//1
f 65//6 66//6 68//6 67//6
f 67//2 68//2 72//2 71//2
f 69//3 70//3 66//3 65//3
f 72//4 68//4 66//4 70//4
f 67//5 71//5 69//5 65//5
f 79//1 80//1 78//1 77//1
f 73//6 74//6 76//6 75//6
f 75//2 76//2 80//2 79//2
f 77//3 78//3 74//3 73//3
f 80//4 76//4 74//4 78//4
f 75//5 79//5 77//5 73//5
f 87//1 88//1 86//1 85//1
f 81//6 82//6 84//6 83//6
f 83//2 84//2 88//2 87//2
f 85//3 86//3 82//3 81//3
f 88//4 84//4 82//4 86//4
f 83//5 87//5 85//5 81//5
f 95//1 96//1 94//1 93//1
f 89//6 90//6 92//6 91//6
f 91//2 92//2 96//2 95//2
f 93//3 94//3 90//3 89//3
f 96//4 92//4 90//4 94//4
f 91//5 95//5 93//5 89//5
f 97//6 98//6 100//6 99//6
f 99//2 100//2 104//2 103//2
f 101//3 102//3 98//3 97//3
f 104//4 100//4 98//4 102//4
f 99//5 103//5 101//5 97//5
