# Blender 5.1.1
# www.blender.org
o Penrose
v 5.333429 3.333358 5.333357
v 5.000095 4.000025 6.000024
v 4.000096 4.000024 4.000024
v 4.000091 4.000034 4.000033
v 6.666762 4.666691 4.666690
v 6.000100 6.000015 6.000014
v 5.333429 5.333358 3.333357
v 5.000095 6.000025 4.000024
v 6.166762 1.666691 3.666690
v 5.500095 3.000025 5.000024
v 4.833429 2.333358 2.333357
v 4.166762 3.666691 3.666690
v 7.500095 3.000025 3.000023
v 6.833428 4.333358 4.333357
v 6.166762 3.666691 1.666690
v 5.500095 5.000024 3.000024
v 7.000096 0.000024 2.000024
v 6.333429 1.333358 3.333357
v 5.666763 0.666691 0.666690
v 5.000096 2.000024 2.000024
v 8.333428 1.333357 1.333357
v 7.666762 2.666691 2.666690
v 7.000096 2.000024 0.000023
v 6.333429 3.333358 1.333357
v 5.333405 0.833369 0.333333
v 4.666738 2.166703 1.666666
v 4.000072 1.500036 -1.000000
v 3.333405 2.833369 0.333333
v 6.666739 2.166703 -0.333334
v 6.000072 3.500036 1.000000
v 5.333405 2.833369 -1.666667
v 4.666738 4.166703 -0.333334
v 3.666715 1.666715 -1.333358
v 3.000048 3.000048 -0.000024
v 2.333381 2.333381 -2.666691
v 1.666714 3.666715 -1.333357
v 5.000048 3.000048 -2.000024
v 4.333381 4.333382 -0.666691
v 3.666714 3.666715 -3.333358
v 3.000048 5.000048 -2.000024
v 2.000024 2.500060 -3.000048
v 1.333357 3.833394 -1.666715
v 0.666690 3.166727 -4.333382
v 0.000024 4.500060 -3.000048
v 3.333357 3.833393 -3.666715
v 2.666690 5.166727 -2.333381
v 2.000024 4.500060 -5.000049
v 1.333357 5.833393 -3.666715
v 0.333333 3.333405 -4.666739
v -0.333334 4.666739 -3.333405
v -1.000000 4.000072 -6.000072
v -1.666667 5.333405 -4.666739
v 1.666666 4.666739 -5.333405
v 1.000000 6.000072 -4.000072
v 0.333333 5.333405 -6.666739
v -0.333334 6.666739 -5.333405
v -1.333357 1.666715 -3.833393
v -2.000024 3.000048 -2.500060
v -2.666691 2.333381 -5.166726
v -3.333358 3.666715 -3.833393
v -0.000024 3.000048 -4.500060
v -0.666691 4.333381 -3.166726
v -1.333358 3.666714 -5.833393
v -2.000024 5.000048 -4.500060
v -3.000048 0.000024 -3.000048
v -3.666715 1.333357 -1.666714
v -4.333381 0.666690 -4.333381
v -5.000048 2.000024 -3.000047
v -1.666715 1.333357 -3.666714
v -2.333382 2.666691 -2.333381
v -3.000048 2.000024 -5.000048
v -3.666715 3.333358 -3.666714
v -4.666738 -1.666667 -2.166702
v -5.333405 -0.333333 -0.833369
v -6.000072 -1.000000 -3.500036
v -6.666739 0.333333 -2.166702
v -3.333405 -0.333334 -2.833369
v -4.000072 1.000000 -1.500036
v -4.666739 0.333333 -4.166702
v -5.333405 1.666667 -2.833369
v -6.333429 -3.333358 -1.333357
v -7.000096 -2.000024 -0.000023
v -7.666762 -2.666691 -2.666690
v -8.333428 -1.333357 -1.333357
v -5.000096 -2.000024 -2.000024
v -5.666763 -0.666691 -0.666690
v -6.333429 -1.333358 -3.333357
v -7.000096 -0.000024 -2.000024
v -5.500095 -5.000024 -3.000024
v -6.166762 -3.666691 -1.666690
v -6.833428 -4.333358 -4.333357
v -7.500095 -3.000025 -3.000023
v -4.166762 -3.666691 -3.666690
v -4.833429 -2.333358 -2.333357
v -5.500095 -3.000025 -5.000024
v -6.166762 -1.666691 -3.666690
v -5.000095 -6.000025 -4.000024
v -5.333429 -5.333358 -3.333357
v -6.000100 -6.000015 -6.000014
v -6.666762 -4.666691 -4.666690
v -4.000091 -4.000034 -4.000033
v -4.000096 -4.000024 -4.000024
v -5.000095 -4.000025 -6.000024
v -5.333429 -3.333358 -5.333357
vn 0.6667 0.6667 -0.3333
vn -0.6667 -0.6667 0.3333
vn -0.6667 0.3333 -0.6667
vn 0.6667 -0.3333 0.6667
vn 0.3333 -0.6667 -0.6667
vn -0.3333 0.6667 0.6667
s 0
f 7//1 8//1 6//1 5//1
f 1//2 2//2 4//2 3//2
f 3//3 4//3 8//3 7//3
f 5//4 6//4 2//4 1//4
f 3//5 7//5 5//5 1//5
f 15//1 16//1 14//1 13//1
f 9//2 10//2 12//2 11//2
f 11//3 12//3 16//3 15//3
f 13//4 14//4 10//4 9//4
f 16//6 12//6 10//6 14//6
f 11//5 15//5 13//5 9//5
f 23//1 24//1 22//1 21//1
f 17//2 18//2 20//2 19//2
f 19//3 20//3 24//3 23//3
f 21//4 22//4 18//4 17//4
f 24//6 20//6 18//6 22//6
f 19//5 23//5 21//5 17//5
f 31//1 32//1 30//1 29//1
f 25//2 26//2 28//2 27//2
f 27//3 28//3 32//3 31//3
f 29//4 30//4 26//4 25//4
f 32//6 28//6 26//6 30//6
f 27//5 31//5 29//5 25//5
f 39//1 40//1 38//1 37//1
f 33//2 34//2 36//2 35//2
f 35//3 36//3 40//3 39//3
f 37//4 38//4 34//4 33//4
f 40//6 36//6 34//6 38//6
f 35//5 39//5 37//5 33//5
f 47//1 48//1 46//1 45//1
f 41//2 42//2 44//2 43//2
f 43//3 44//3 48//3 47//3
f 45//4 46//4 42//4 41//4
f 48//6 44//6 42//6 46//6
f 43//5 47//5 45//5 41//5
f 55//1 56//1 54//1 53//1
f 49//2 50//2 52//2 51//2
f 51//3 52//3 56//3 55//3
f 53//4 54//4 50//4 49//4
f 56//6 52//6 50//6 54//6
f 51//5 55//5 53//5 49//5
f 63//1 64//1 62//1 61//1
f 57//2 58//2 60//2 59//2
f 59//3 60//3 64//3 63//3
f 61//4 62//4 58//4 57//4
f 64//6 60//6 58//6 62//6
f 59//5 63//5 61//5 57//5
f 71//1 72//1 70//1 69//1
f 65//2 66//2 68//2 67//2
f 67//3 68//3 72//3 71//3
f 69//4 70//4 66//4 65//4
f 72//6 68//6 66//6 70//6
f 67//5 71//5 69//5 65//5
f 79//1 80//1 78//1 77//1
f 73//2 74//2 76//2 75//2
f 75//3 76//3 80//3 79//3
f 77//4 78//4 74//4 73//4
f 80//6 76//6 74//6 78//6
f 75//5 79//5 77//5 73//5
f 87//1 88//1 86//1 85//1
f 81//2 82//2 84//2 83//2
f 83//3 84//3 88//3 87//3
f 85//4 86//4 82//4 81//4
f 88//6 84//6 82//6 86//6
f 83//5 87//5 85//5 81//5
f 95//1 96//1 94//1 93//1
f 89//2 90//2 92//2 91//2
f 91//3 92//3 96//3 95//3
f 93//4 94//4 90//4 89//4
f 96//6 92//6 90//6 94//6
f 91//5 95//5 93//5 89//5
f 103//1 104//1 102//1 101//1
f 97//2 98//2 100//2 99//2
f 99//3 100//3 104//3 103//3
f 101//4 102//4 98//4 97//4
f 104//6 100//6 98//6 102//6
