# Blender 5.1.1
# www.blender.org
o Rectangle
v 5.000087 4.500000 7.000087
v 5.000087 3.500014 5.000087
v 7.000087 5.499986 7.000087
v 7.000087 4.500000 5.000087
v 5.000087 -1.000000 7.000087
v 5.000087 1.000000 7.000087
v 5.000087 -1.000000 5.000087
v 5.000087 1.000000 5.000087
v 7.000087 -1.000000 7.000087
v 7.000087 1.000000 7.000087
v 7.000087 -1.000000 5.000087
v 7.000087 1.000000 5.000087
v 5.000087 -1.000000 -5.000087
v 5.000087 1.000000 -5.000087
v 5.000087 -1.000000 -7.000087
v 5.000087 1.000000 -7.000087
v 7.000087 -1.000000 -5.000087
v 7.000087 1.000000 -5.000087
v 7.000087 -1.000000 -7.000087
v 7.000087 1.000000 -7.000087
v 5.000087 -4.000000 -5.000087
v 5.000087 -2.000000 -5.000087
v 5.000087 -4.000000 -7.000087
v 5.000087 -2.000000 -7.000087
v 7.000087 -4.000000 -5.000087
v 7.000087 -2.000000 -5.000087
v 7.000087 -4.000000 -7.000087
v 7.000087 -2.000000 -7.000087
v -7.000087 -4.000000 -5.000087
v -7.000087 -2.000000 -5.000087
v -7.000087 -4.000000 -7.000087
v -7.000087 -2.000000 -7.000087
v -5.000087 -4.000000 -5.000087
v -5.000087 -2.000000 -5.000087
v -5.000087 -4.000000 -7.000087
v -5.000087 -2.000000 -7.000087
v -7.000087 -7.500000 -5.000087
v -7.000087 -8.499986 -7.000087
v -5.000087 -6.500014 -5.000087
v -5.000087 -7.500000 -7.000087
vn 1.0000 -0.0000 -0.0000
vn -1.0000 -0.0000 -0.0000
vn -0.0000 -0.0000 1.0000
vn -0.0000 -1.0000 -0.0000
vn -0.0000 -0.0000 -1.0000
vn -0.0000 1.0000 -0.0000
s 0
f 11//1 12//1 10//1 9//1
f 5//2 6//2 8//2 7//2
f 9//3 10//3 6//3 5//3
f 7//4 11//4 9//4 5//4
f 19//1 20//1 18//1 17//1
f 13//2 14//2 16//2 15//2
f 15//5 16//5 20//5 19//5
f 20//6 16//6 14//6 18//6
f 27//1 28//1 26//1 25//1
f 23//5 24//5 28//5 27//5
f 25//3 26//3 22//3 21//3
f 23//4 27//4 25//4 21//4
f 29//2 30//2 32//2 31//2
f 31//5 32//5 36//5 35//5
f 33//3 34//3 30//3 29//3
f 36//6 32//6 30//6 34//6
f 12//1 4//1 3//1 10//1
f 6//2 1//2 2//2 8//2
f 8//5 2//5 4//5 12//5
f 10//3 3//3 1//3 6//3
f 17//1 18//1 12//1 11//1
f 7//2 8//2 14//2 13//2
f 18//6 14//6 8//6 12//6
f 13//4 17//4 11//4 7//4
f 28//1 19//1 17//1 26//1
f 22//2 13//2 15//2 24//2
f 24//5 15//5 19//5 28//5
f 26//3 17//3 13//3 22//3
f 35//5 36//5 24//5 23//5
f 21//3 22//3 34//3 33//3
f 24//6 36//6 34//6 22//6
f 35//4 23//4 21//4 33//4
f 40//1 35//1 33//1 39//1
f 37//2 29//2 31//2 38//2
f 38//5 31//5 35//5 40//5
f 39//3 33//3 29//3 37//3
